{"title":"Regular Show S06E27 Death Kwon Do-Livery HDTV EN-SUB x264-W4F","uid":12059403,"size":79218948,"categoryP":"video","categoryS":"tv_shows","magnet":"?xt=urn:btih:2d51d4a4dee8f77772367e162ed663e0c758eec2&amp;dn=Regular+Show+S06E27+Death+Kwon+Do-Livery+HDTV+EN-SUB+x264-W4F&amp;tr=udp%3A%2F%2Ftracker.openbittorrent.com%3A80&amp;tr=udp%3A%2F%2Fopen.demonii.com%3A1337&amp;tr=udp%3A%2F%2Ftracker.coppersurfer.tk%3A6969&amp;tr=udp%3A%2F%2Fexodus.desync.com%3A6969","seeders":12,"leechers":3,"uploader":"Mulva1989","files":2,"time":1435210752,"description":"Regular Show S06E27 Death Kwon Do-Livery HDTV EN-SUB x264-W4F\n\nThe Death Kwon-Do master is in need of a new stomach, so Mordecai and Rigby head to the Death Kwon-Do Hospital to receive one.\n\nScreens @ &lt;a href=&quot;\nhttps://yuq.me/users/50/321/gofRHbE1WV.jpg&quot; rel=&quot;nofollow&quot; target=&quot;_NEW&quot;&gt;\nhttps://yuq.me/users/50/321/gofRHbE1WV.jpg&lt;/a&gt; &lt;a href=&quot;\nhttps://yuq.me/users/50/321/I2p4fNsnQq.jpg&quot; rel=&quot;nofollow&quot; target=&quot;_NEW&quot;&gt;\nhttps://yuq.me/users/50/321/I2p4fNsnQq.jpg&lt;/a&gt;\n\nFormat : MPEG-4\nFormat profile : Base Media\nCodec ID : isom\nFile size : 75.5 MiB\nDuration : 11mn 3s\nOverall bit rate mode : Variable\nOverall bit rate : 955 Kbps\nEncoded date : UTC 2015-06-23 22:22:20\nTagged date : UTC 2015-06-23 22:22:20\n\nVideo\nID : 1\nFormat : AVC\nFormat/Info : Advanced Video Codec\nFormat profile : &lt;a class=&quot;__cf_email__&quot; href=&quot;/cdn-cgi/l/email-protection&quot; data-cfemail=&quot;eda5848a85ada1dec3dc&quot;&gt;[email&amp;#160;protected]&lt;/a&gt;&lt;script data-cfhash='f9e31' type=&quot;text/javascript&quot;&gt;\n/* &lt;![CDATA[ */!function(){try{var t=&quot;currentScript&quot;in document?document.currentScript:function(){for(var t=document.getElementsByTagName(&quot;script&quot;),e=t.length;e--;)if(t[e].getAttribute(&quot;data-cfhash&quot;))return t[e]}();if(t&amp;&amp;t.previousSibling){var e,r,n,i,c=t.previousSibling,a=c.getAttribute(&quot;data-cfemail&quot;);if(a){for(e=&quot;&quot;,r=parseInt(a.substr(0,2),16),n=2;a.length-n;n+=2)i=parseInt(a.substr(n,2),16)^r,e+=String.fromCharCode(i);e=document.createTextNode(e),c.parentNode.replaceChild(e,c)}t.parentNode.removeChild(t);}}catch(u){}}()/* ]]&gt; */&lt;/script&gt;\nFormat settings, CABAC : Yes\nFormat settings, ReFrames : 10 frames\nCodec ID : avc1\nCodec ID/Info : Advanced Video Coding\nDuration : 11mn 0s\nBit rate : 837 Kbps\nMaximum bit rate : 3 598 Kbps\nWidth : 720 pixels\nHeight : 404 pixels\nDisplay aspect ratio : 16:9\nFrame rate mode : Constant\nFrame rate : 23.976 fps\nColor space : YUV\nChroma subsampling : 4:2:0\nBit depth : 8 bits\nScan type : Progressive\nBits/(Pixel*Frame) : 0.120\nStream size : 65.9 MiB (87%)\nWriting library : x264 core 146 r2538 121396c\nEncoding settings : cabac=1 / ref=10 / deblock=1:1:1 / analyse=0x3:0x113 / me=umh / subme=8 / psy=1 / psy_rd=0.40:0.00 / mixed_ref=1 / me_range=16 / chroma_me=1 / trellis=1 / 8x8dct=1 / cqm=0 / deadzone=21,11 / fast_pskip=1 / chroma_qp_offset=-2 / threads=12 / lookahead_threads=3 / sliced_threads=0 / nr=0 / decimate=1 / interlaced=0 / bluray_compat=0 / constrained_intra=0 / bframes=5 / b_pyramid=2 / b_adapt=2 / b_bias=0 / direct=3 / weightb=1 / open_gop=0 / weightp=2 / keyint=250 / keyint_min=25 / scenecut=40 / intra_refresh=0 / rc_lookahead=50 / rc=crf / mbtree=1 / crf=19.0 / qcomp=0.60 / qpmin=0 / qpmax=69 / qpstep=4 / ip_ratio=1.40 / aq=1:0.60\nEncoded date : UTC 2015-06-23 22:22:20\nTagged date : UTC 2015-06-23 22:22:21\nMatrix coefficients : BT.709\nColor range : Limited\n\nAudio\nID : 2\nFormat : AAC\nFormat/Info : Advanced Audio Codec\nFormat profile : LC\nCodec ID : 40\nDuration : 11mn 0s\nBit rate mode : Variable\nBit rate : 118 Kbps\nMaximum bit rate : 153 Kbps\nChannel(s) : 2 channels\nChannel positions : Front: L R\nSampling rate : 48.0 KHz\nCompression mode : Lossy\nStream size : 9.27 MiB (12%)\nLanguage : English\nEncoded date : UTC 2015-06-23 22:22:21\nTagged date : UTC 2015-06-23 22:22:21\n\nText\nID : 3\nFormat : Timed Text\nCodec ID : tx3g\nDuration : 11mn 3s\nBit rate mode : Variable\nBit rate : 135 bps\nStream size : 11.0 KiB (0%)\nLanguage : English\nEncoded date : UTC 2015-06-23 22:22:21\nTagged date : UTC 2015-06-23 22:22:21","torrent":{"xt":"urn:btih:2d51d4a4dee8f77772367e162ed663e0c758eec2","amp;dn":"Regular+Show+S06E27+Death+Kwon+Do-Livery+HDTV+EN-SUB+x264-W4F","amp;tr":["udp%3A%2F%2Ftracker.openbittorrent.com%3A80","udp%3A%2F%2Fopen.demonii.com%3A1337","udp%3A%2F%2Ftracker.coppersurfer.tk%3A6969","udp%3A%2F%2Fexodus.desync.com%3A6969"],"infoHash":"2d51d4a4dee8f77772367e162ed663e0c758eec2","infoHashBuffer":{"type":"Buffer","data":[45,81,212,164,222,232,247,119,114,54,126,22,46,214,99,224,199,88,238,194]},"announce":[],"urlList":[]}}